HIERARCHY
ROOT Root
{
  OFFSET 0.0 0.0 0.0
  CHANNELS 6 Xposition Yposition Zposition Zrotation Yrotation Xrotation
  JOINT Hips
  {
    OFFSET 0.0 100.0 0.0
    CHANNELS 6 Xposition Yposition Zposition Zrotation Yrotation Xrotation
    JOINT Spine1
    {
      OFFSET -0.013727 5.003763 -0.053727
      CHANNELS 3 Zrotation Yrotation Xrotation
      JOINT Spine2
      {
        OFFSET -0.0 7.125301 -0.029825
        CHANNELS 3 Zrotation Yrotation Xrotation
        JOINT Chest
        {
          OFFSET -1e-06 7.550063 -0.815971
          CHANNELS 3 Zrotation Yrotation Xrotation
          JOINT Neck1
          {
            OFFSET -0.181677 26.311295 -0.553348
            CHANNELS 3 Zrotation Yrotation Xrotation
            JOINT Neck2
            {
              OFFSET -3e-06 7.709397 2.302585
              CHANNELS 3 Zrotation Yrotation Xrotation
              JOINT Head
              {
                OFFSET -5e-06 6.128916 1.953709
                CHANNELS 3 Zrotation Yrotation Xrotation
                JOINT HeadEnd
                {
                  OFFSET 0.003598 16.065403 -1.835379
                  CHANNELS 3 Zrotation Yrotation Xrotation
                }
                JOINT Jaw
                {
                  OFFSET 0.002637 0.475592 3.094941
                  CHANNELS 3 Zrotation Yrotation Xrotation
                }
                JOINT LeftEye
                {
                  OFFSET 3.206381 5.380205 7.586883
                  CHANNELS 3 Zrotation Yrotation Xrotation
                }
                JOINT RightEye
                {
                  OFFSET -3.22244 5.361869 7.558234
                  CHANNELS 3 Zrotation Yrotation Xrotation
                }
              }
            }
          }
          JOINT LeftShoulder
          {
            OFFSET 1.621652 23.237164 5.113413
            CHANNELS 3 Zrotation Yrotation Xrotation
            JOINT LeftArm
            {
              OFFSET 14.919846 2e-06 -5.502326
              CHANNELS 3 Zrotation Yrotation Xrotation
              JOINT LeftForeArm
              {
                OFFSET 28.739307 0.0 -0.002588
                CHANNELS 3 Zrotation Yrotation Xrotation
                JOINT LeftHand
                {
                  OFFSET 27.093981 -1e-06 0.002609
                  CHANNELS 3 Zrotation Yrotation Xrotation
                  JOINT LeftHandThumb1
                  {
                    OFFSET 2.276482 -1.392045 3.191413
                    CHANNELS 3 Zrotation Yrotation Xrotation
                    JOINT LeftHandThumb2
                    {
                      OFFSET 4.012836 -1.828127 1.641654
                      CHANNELS 3 Zrotation Yrotation Xrotation
                      JOINT LeftHandThumb3
                      {
                        OFFSET 2.798515 0.0 -3e-06
                        CHANNELS 3 Zrotation Yrotation Xrotation
                        JOINT LeftHandThumbEnd
                        {
                          OFFSET 3.180793 -4e-06 4e-06
                          CHANNELS 3 Zrotation Yrotation Xrotation
                        }
                      }
                    }
                  }
                  JOINT LeftHandIndex1
                  {
                    OFFSET 3.247555 -0.531998 2.296169
                    CHANNELS 3 Zrotation Yrotation Xrotation
                    JOINT LeftHandIndex2
                    {
                      OFFSET 6.364578 0.01206 0.1786
                      CHANNELS 3 Zrotation Yrotation Xrotation
                      JOINT LeftHandIndex3
                      {
                        OFFSET 3.662364 0.0 0.0
                        CHANNELS 3 Zrotation Yrotation Xrotation
                        JOINT LeftHandIndex4
                        {
                          OFFSET 2.329242 4e-06 4e-06
                          CHANNELS 3 Zrotation Yrotation Xrotation
                          JOINT LeftHandIndexEnd
                          {
                            OFFSET 2.759615 -0.180537 -0.113024
                            CHANNELS 3 Zrotation Yrotation Xrotation
                          }
                        }
                      }
                    }
                  }
                  JOINT LeftHandMiddle1
                  {
                    OFFSET 3.163495 0.240981 1.000332
                    CHANNELS 3 Zrotation Yrotation Xrotation
                    JOINT LeftHandMiddle2
                    {
                      OFFSET 6.19078 -0.259278 -1.002548
                      CHANNELS 3 Zrotation Yrotation Xrotation
                      JOINT LeftHandMiddle3
                      {
                        OFFSET 4.35652 -4e-06 -1e-06
                        CHANNELS 3 Zrotation Yrotation Xrotation
                        JOINT LeftHandMiddle4
                        {
                          OFFSET 2.996877 -8e-06 0.0
                          CHANNELS 3 Zrotation Yrotation Xrotation
                          JOINT LeftHandMiddleEnd
                          {
                            OFFSET 2.304287 -0.294569 -0.031741
                            CHANNELS 3 Zrotation Yrotation Xrotation
                          }
                        }
                      }
                    }
                  }
                  JOINT LeftHandRing1
                  {
                    OFFSET 2.882643 -0.053652 -0.322543
                    CHANNELS 3 Zrotation Yrotation Xrotation
                    JOINT LeftHandRing2
                    {
                      OFFSET 5.854541 -0.486202 -1.373841
                      CHANNELS 3 Zrotation Yrotation Xrotation
                      JOINT LeftHandRing3
                      {
                        OFFSET 4.350578 0.0 3e-06
                        CHANNELS 3 Zrotation Yrotation Xrotation
                        JOINT LeftHandRing4
                        {
                          OFFSET 2.651321 7e-06 2e-06
                          CHANNELS 3 Zrotation Yrotation Xrotation
                          JOINT LeftHandRingEnd
                          {
                            OFFSET 1.936105 0.077687 -7.1e-05
                            CHANNELS 3 Zrotation Yrotation Xrotation
                          }
                        }
                      }
                    }
                  }
                  JOINT LeftHandPinky1
                  {
                    OFFSET 2.8655 -0.310005 -1.600378
                    CHANNELS 3 Zrotation Yrotation Xrotation
                    JOINT LeftHandPinky2
                    {
                      OFFSET 5.087849 -1.331141 -1.77123
                      CHANNELS 3 Zrotation Yrotation Xrotation
                      JOINT LeftHandPinky3
                      {
                        OFFSET 3.070974 4e-06 0.0
                        CHANNELS 3 Zrotation Yrotation Xrotation
                        JOINT LeftHandPinky4
                        {
                          OFFSET 1.549672 0.0 1e-06
                          CHANNELS 3 Zrotation Yrotation Xrotation
                          JOINT LeftHandPinkyEnd
                          {
                            OFFSET 1.944893 -0.157802 0.057219
                            CHANNELS 3 Zrotation Yrotation Xrotation
                          }
                        }
                      }
                    }
                  }
                }
              }
            }
          }
          JOINT RightShoulder
          {
            OFFSET -1.380118 23.180309 5.214158
            CHANNELS 3 Zrotation Yrotation Xrotation
            JOINT RightArm
            {
              OFFSET -15.037196 1.2e-05 -5.545604
              CHANNELS 3 Zrotation Yrotation Xrotation
              JOINT RightForeArm
              {
                OFFSET -28.736639 2e-06 -0.002597
                CHANNELS 3 Zrotation Yrotation Xrotation
                JOINT RightHand
                {
                  OFFSET -27.133619 -0.0 0.002613
                  CHANNELS 3 Zrotation Yrotation Xrotation
                  JOINT RightHandThumb1
                  {
                    OFFSET -2.274032 -1.383988 3.163127
                    CHANNELS 3 Zrotation Yrotation Xrotation
                    JOINT RightHandThumb2
                    {
                      OFFSET -4.011429 -1.827466 1.640914
                      CHANNELS 3 Zrotation Yrotation Xrotation
                      JOINT RightHandThumb3
                      {
                        OFFSET -2.794935 -4e-06 -3e-06
                        CHANNELS 3 Zrotation Yrotation Xrotation
                        JOINT RightHandThumbEnd
                        {
                          OFFSET -3.183852 4e-06 1e-06
                          CHANNELS 3 Zrotation Yrotation Xrotation
                        }
                      }
                    }
                  }
                  JOINT RightHandIndex1
                  {
                    OFFSET -3.253266 -0.520057 2.282866
                    CHANNELS 3 Zrotation Yrotation Xrotation
                    JOINT RightHandIndex2
                    {
                      OFFSET -6.341917 0.012471 0.178266
                      CHANNELS 3 Zrotation Yrotation Xrotation
                      JOINT RightHandIndex3
                      {
                        OFFSET -3.654871 -8e-06 -0.0
                        CHANNELS 3 Zrotation Yrotation Xrotation
                        JOINT RightHandIndex4
                        {
                          OFFSET -2.327586 0.0 1e-06
                          CHANNELS 3 Zrotation Yrotation Xrotation
                          JOINT RightHandIndexEnd
                          {
                            OFFSET -2.76179 -0.180656 -0.113078
                            CHANNELS 3 Zrotation Yrotation Xrotation
                          }
                        }
                      }
                    }
                  }
                  JOINT RightHandMiddle1
                  {
                    OFFSET -3.168106 0.246593 1.00103
                    CHANNELS 3 Zrotation Yrotation Xrotation
                    JOINT RightHandMiddle2
                    {
                      OFFSET -6.180828 -0.258836 -1.000895
                      CHANNELS 3 Zrotation Yrotation Xrotation
                      JOINT RightHandMiddle3
                      {
                        OFFSET -4.348901 0.0 -0.0
                        CHANNELS 3 Zrotation Yrotation Xrotation
                        JOINT RightHandMiddle4
                        {
                          OFFSET -3.00024 -4e-06 -2e-06
                          CHANNELS 3 Zrotation Yrotation Xrotation
                          JOINT RightHandMiddleEnd
                          {
                            OFFSET -2.30252 -0.29437 -0.031706
                            CHANNELS 3 Zrotation Yrotation Xrotation
                          }
                        }
                      }
                    }
                  }
                  JOINT RightHandRing1
                  {
                    OFFSET -2.88569 -0.067952 -0.308858
                    CHANNELS 3 Zrotation Yrotation Xrotation
                    JOINT RightHandRing2
                    {
                      OFFSET -5.854198 -0.48613 -1.373731
                      CHANNELS 3 Zrotation Yrotation Xrotation
                      JOINT RightHandRing3
                      {
                        OFFSET -4.33881 -4e-06 -0.0
                        CHANNELS 3 Zrotation Yrotation Xrotation
                        JOINT RightHandRing4
                        {
                          OFFSET -2.654903 -4e-06 4e-06
                          CHANNELS 3 Zrotation Yrotation Xrotation
                          JOINT RightHandRingEnd
                          {
                            OFFSET -1.933568 0.077527 -5.2e-05
                            CHANNELS 3 Zrotation Yrotation Xrotation
                          }
                        }
                      }
                    }
                  }
                  JOINT RightHandPinky1
                  {
                    OFFSET -2.866425 -0.342796 -1.584145
                    CHANNELS 3 Zrotation Yrotation Xrotation
                    JOINT RightHandPinky2
                    {
                      OFFSET -5.091371 -1.332055 -1.772385
                      CHANNELS 3 Zrotation Yrotation Xrotation
                      JOINT RightHandPinky3
                      {
                        OFFSET -3.062664 -4e-06 1e-06
                        CHANNELS 3 Zrotation Yrotation Xrotation
                        JOINT RightHandPinky4
                        {
                          OFFSET -1.546529 4e-06 -2e-06
                          CHANNELS 3 Zrotation Yrotation Xrotation
                          JOINT RightHandPinkyEnd
                          {
                            OFFSET -1.945119 -0.157718 0.057211
                            CHANNELS 3 Zrotation Yrotation Xrotation
                          }
                        }
                      }
                    }
                  }
                }
              }
            }
          }
        }
      }
    }
    JOINT LeftLeg
    {
      OFFSET 10.043214 -8.434526 2.595655
      CHANNELS 3 Zrotation Yrotation Xrotation
      JOINT LeftShin
      {
        OFFSET -1e-06 -43.221752 -0.802913
        CHANNELS 3 Zrotation Yrotation Xrotation
        JOINT LeftFoot
        {
          OFFSET 1e-06 -42.155094 -3.481523
          CHANNELS 3 Zrotation Yrotation Xrotation
          JOINT LeftToeBase
          {
            OFFSET 0.0 -5.059472 13.231529
            CHANNELS 3 Zrotation Yrotation Xrotation
            JOINT LeftToeEnd
            {
              OFFSET -0.009607 -1.647619 6.513017
              CHANNELS 3 Zrotation Yrotation Xrotation
            }
          }
        }
      }
    }
    JOINT RightLeg
    {
      OFFSET -10.047278 -8.29526 2.620317
      CHANNELS 3 Zrotation Yrotation Xrotation
      JOINT RightShin
      {
        OFFSET 1e-06 -43.362206 -0.805556
        CHANNELS 3 Zrotation Yrotation Xrotation
        JOINT RightFoot
        {
          OFFSET 2e-06 -42.117393 -3.478398
          CHANNELS 3 Zrotation Yrotation Xrotation
          JOINT RightToeBase
          {
            OFFSET -0.0 -5.079609 13.284196
            CHANNELS 3 Zrotation Yrotation Xrotation
            JOINT RightToeEnd
            {
              OFFSET 0.009532 -1.634378 6.460591
              CHANNELS 3 Zrotation Yrotation Xrotation
            }
          }
        }
      }
    }
  }
}
MOTION
Frames: 4
Frame Time: 0.03333333333333333
0.0 0.0 0.0 0.0 -0.0 0.0 -0.469558 41.493954 1.082833 -6.239154 -0.542101 2.103843 -2.727619 -3.166528 22.256235 -0.909309 -3.473282 5.883426 -1.020844 -9.175225 10.137323 -7.824501 6.217774 -12.993503 3.732327 14.418309 -2.345228 -6.795202 20.640751 -18.053724 7.7e-05 -2.3e-05 6e-06 0.114761 -0.316031 -0.014819 0.741312 -4.067665 -10.805309 -0.52528 3.45991 -10.724421 8.950992 -18.985085 -2.180549 -67.225998 -25.172726 18.180014 -3.705496 -60.655952 3.993963 -2.265894 8.326905 38.307663 -5.882107 9.861288 0.702591 -10.936873 -0.360575 7.156207 0.0 8.774826 -0.0 -16.01115 17.311588 6.386039 -1.844033 2.498506 -2.507278 -10.163603 4.678944 4.62111 -20.976027 -4e-06 5e-06 -21.22629 2.451698 -3.593999 -2e-06 -6e-06 1e-06 -1.362681 2.240799 -0.746323 -21.334921 0.58491 3.008324 -13.821217 -3e-06 3e-06 -23.887173 -0.249078 -0.839483 -60.980061 2.603935 -0.294943 -0.294025 1.679688 0.833256 -14.21821 0.093214 1.300582 -34.212055 -0.287563 0.967173 -20.033218 0.964539 1.212846 -0.0 2e-06 -0.0 -3.440389 0.788233 0.501656 -15.928191 -3.167311 2.999708 -6.338829 2e-06 1e-06 -18.123447 3.648183 -4.905673 -3e-06 1e-06 -3e-06 2.669455 13.165794 4.466376 66.845802 8.461488 25.706694 -2.625615 61.943253 -2.532395 -8.88674 10.121578 23.953329 2.243544 -5.255038 -3.180158 14.282893 -0.826598 6.952499 -0.0 -12.690605 1e-06 17.213934 -18.389441 1.99198 1.665666 -1.955922 -2.8783 4.7278 -4.17059 4.993925 11.020528 1e-06 -2e-06 12.109055 -3.735719 -2.866786 0.0 0.0 -1e-06 1.291987 -1.928549 -1.49809 14.800129 0.567466 3.865608 14.242576 -1.341739 -6.66066 19.631969 0.143924 -0.64825 50.509781 -0.725571 -7.444619 0.35303 -1.511151 -0.03194 20.222792 3.684307 2.316626 18.787273 3e-06 -4e-06 10.751629 -0.47987 1.397903 0.0 0.0 -1e-06 3.273806 0.305946 -0.58011 21.486813 11.830372 2.266128 8.162928 1e-06 -2e-06 18.399088 -3.798985 -4.94058 3e-06 -0.0 -0.0 14.74906 15.646746 -112.825424 -0.390914 -0.068964 119.901237 -8.106619 -9.518158 -6.841194 1.542545 -1.983126 1.580373 -0.0 0.0 2e-06 -38.506222 -33.70451 -66.579208 1.088604 1.155772 124.719444 26.242565 23.129787 -19.609646 -1.436765 0.51677 2.792688 -0.0 -1e-06 -1e-06 
0.0 0.0 0.0 0.0 -0.0 0.0 -0.501909 41.424896 1.112316 -6.321068 -0.594148 2.211127 -2.742655 -3.211649 22.213469 -0.917766 -3.42484 5.859287 -0.98394 -9.304826 10.104054 -7.757032 6.130394 -13.148234 3.804202 14.421661 -2.369209 -6.710256 20.795343 -17.892357 7.7e-05 -2.2e-05 6e-06 0.11211 -0.327385 -0.014403 0.729809 -4.074813 -10.770832 -0.518655 3.442489 -10.691427 8.822152 -18.998951 -2.118075 -67.084755 -25.134417 18.270126 -3.274204 -60.551895 3.702403 -2.190957 8.458012 37.951363 -5.882109 9.861288 0.70259 -10.936875 -0.360575 7.156208 2e-06 8.774828 -0.0 -16.02277 17.311613 6.380882 -1.844033 2.498506 -2.507278 -10.163604 4.678946 4.621108 -20.97603 -5e-06 2e-06 -21.226292 2.451698 -3.594001 -2e-06 -6e-06 1e-06 -1.362682 2.240798 -0.746324 -21.334923 0.584908 3.008322 -13.821221 -2e-06 1e-06 -23.887182 -0.249079 -0.839483 -60.973755 2.534642 -0.357738 -0.294024 1.679687 0.833255 -14.218214 0.093216 1.30058 -34.212063 -0.287566 0.96717 -20.033218 0.964534 1.212844 -0.0 1e-06 -0.0 -3.440389 0.788233 0.501656 -15.928192 -3.167311 2.999707 -6.338829 -0.0 1e-06 -18.123455 3.648184 -4.905673 -4e-06 1e-06 -2e-06 2.752607 13.169848 4.492118 66.849503 8.697506 25.843143 -2.714777 61.668221 -2.613941 -8.721075 10.227634 23.910557 2.243542 -5.255038 -3.180159 14.282894 -0.826591 6.952504 -5e-06 -12.690609 -0.0 17.136642 -18.343599 2.015677 1.665666 -1.955921 -2.878298 4.727798 -4.170587 4.993925 11.020528 5e-06 -0.0 12.109053 -3.735714 -2.866785 0.0 0.0 -1e-06 1.291986 -1.92855 -1.49809 14.800134 0.567473 3.865607 14.242574 -1.341733 -6.66066 19.631973 0.143932 -0.648243 50.473087 -0.721071 -7.398053 0.353027 -1.511151 -0.031939 20.222799 3.684315 2.316631 18.787279 8e-06 1e-06 10.751631 -0.479868 1.397908 0.0 -0.0 -0.0 3.273807 0.305948 -0.580112 21.48682 11.830384 2.266134 8.16293 4e-06 0.0 18.399082 -3.798982 -4.940574 3e-06 -1e-06 -0.0 14.864085 15.833784 -113.018379 -0.379364 -0.045057 119.984627 -8.186406 -9.698762 -6.782957 1.54739 -2.000385 1.512214 0.0 0.0 2e-06 -38.335484 -33.5247 -66.737984 1.054587 1.190947 124.792091 26.183994 23.042814 -19.932196 -1.446482 0.503323 2.751387 -0.0 0.0 -1e-06 
0.0 0.0 0.0 0.0 -0.0 0.0 -0.489417 41.3494 1.165972 -6.347538 -0.619996 2.270926 -2.75297 -3.25721 22.183027 -0.933612 -3.398194 5.863642 -0.961449 -9.380249 10.086346 -7.709354 6.083535 -13.305005 3.856109 14.41781 -2.386163 -6.683213 20.907183 -17.784618 7.7e-05 -2.3e-05 6e-06 0.117461 -0.352622 -0.012337 0.727157 -4.096848 -10.755217 -0.505076 3.412704 -10.671317 8.725266 -19.075523 -2.14006 -66.92981 -25.032715 18.37656 -2.885988 -60.496399 3.452207 -2.143477 8.61833 37.643318 -5.882106 9.861286 0.702592 -10.936875 -0.360573 7.156209 2e-06 8.774826 0.0 -16.130287 17.32119 6.326249 -1.844032 2.498503 -2.507278 -10.163602 4.678944 4.62111 -20.97603 -4e-06 4e-06 -21.22629 2.451698 -3.593999 -1e-06 -5e-06 1e-06 -1.362681 2.240799 -0.746323 -21.334917 0.584911 3.008325 -13.821216 -2e-06 4e-06 -23.887171 -0.24908 -0.83948 -61.090229 2.506171 -0.388106 -0.294025 1.679688 0.833256 -14.21821 0.093215 1.300583 -34.212051 -0.287564 0.967174 -20.033215 0.964538 1.212847 -0.0 1e-06 -1e-06 -3.440389 0.788233 0.501657 -15.928191 -3.16731 2.99971 -6.338829 0.0 4e-06 -18.123447 3.648181 -4.905669 -3e-06 1e-06 -2e-06 2.896739 13.169005 4.551191 66.775726 8.841673 25.928925 -2.939304 61.562572 -2.778788 -8.670653 10.27284 23.887363 2.243541 -5.255034 -3.180157 14.282886 -0.826596 6.952502 -1e-06 -12.6906 1e-06 17.059233 -18.302374 2.058138 1.665668 -1.955922 -2.878297 4.727798 -4.170586 4.993924 11.020522 2e-06 -2e-06 12.10905 -3.735714 -2.866786 0.0 0.0 -1e-06 1.291985 -1.928549 -1.498088 14.800122 0.567467 3.865608 14.242566 -1.341735 -6.660657 19.631958 0.143926 -0.648245 50.447113 -0.731859 -7.363408 0.35303 -1.511151 -0.03194 20.222784 3.684307 2.316628 18.787266 3e-06 -2e-06 10.751624 -0.479868 1.397905 1e-06 -1e-06 0.0 3.273804 0.305946 -0.580112 21.486809 11.830369 2.26613 8.162924 2e-06 -1e-06 18.399076 -3.798985 -4.940572 3e-06 -0.0 -0.0 14.910906 15.907204 -113.170547 -0.354882 -0.037661 120.118683 -8.216138 -9.750828 -6.796835 1.551968 -2.001032 1.489466 0.0 -0.0 2e-06 -38.355869 -33.445477 -66.767349 1.055582 1.216104 124.836815 26.264088 23.104578 -20.072115 -1.451296 0.508884 2.72682 0.0 0.0 -1e-06 
0.0 0.0 0.0 0.0 -0.0 0.0 -0.459898 41.304218 1.208674 -6.335527 -0.640594 2.319199 -2.755453 -3.310878 22.170637 -0.957489 -3.350443 5.8552 -0.941114 -9.428094 10.068651 -7.671031 6.062035 -13.449789 3.883929 14.394254 -2.395362 -6.676902 20.993423 -17.77964 7.7e-05 -2.2e-05 5e-06 0.121645 -0.367385 -0.013444 0.730361 -4.110075 -10.758857 -0.499847 3.395529 -10.666971 8.641173 -19.159306 -2.129652 -66.777992 -25.03558 18.329542 -2.788342 -60.396843 3.406884 -2.098093 8.727677 37.650021 -5.88211 9.861287 0.702592 -10.93688 -0.360575 7.15621 2e-06 8.774828 0.0 -16.214161 17.330132 6.282449 -1.844034 2.498505 -2.507279 -10.163607 4.678947 4.621112 -20.976042 -5e-06 1e-06 -21.226301 2.451696 -3.594002 -1e-06 -5e-06 1e-06 -1.362682 2.240798 -0.746324 -21.33493 0.584908 3.008325 -13.821226 -3e-06 3e-06 -23.88719 -0.24908 -0.839483 -61.218243 2.490747 -0.388596 -0.294026 1.67969 0.833256 -14.218219 0.093214 1.300581 -34.212074 -0.287568 0.967169 -20.033228 0.964536 1.212843 -0.0 2e-06 -1e-06 -3.440392 0.788233 0.501656 -15.928201 -3.167312 2.999708 -6.338833 0.0 1e-06 -18.123459 3.648182 -4.905674 -3e-06 1e-06 -3e-06 3.049163 13.159464 4.664989 66.688179 8.989596 25.867208 -3.083261 61.542648 -2.872255 -8.719871 10.25547 24.011974 2.243543 -5.255038 -3.180157 14.282894 -0.826597 6.952506 -1e-06 -12.690608 0.0 17.015179 -18.270081 2.096725 1.665667 -1.955922 -2.878299 4.7278 -4.170588 4.993926 11.020527 2e-06 -2e-06 12.109055 -3.735717 -2.866788 -0.0 -0.0 -1e-06 1.291986 -1.928549 -1.49809 14.800132 0.567466 3.865608 14.242577 -1.341735 -6.660662 19.631973 0.143928 -0.648248 50.442444 -0.728468 -7.313642 0.35303 -1.51115 -0.03194 20.222797 3.684307 2.316629 18.787279 2e-06 -1e-06 10.751631 -0.479869 1.397905 0.0 -1e-06 -0.0 3.273808 0.305946 -0.58011 21.486816 11.830374 2.26613 8.162929 1e-06 -1e-06 18.399088 -3.798988 -4.940578 3e-06 -0.0 -1e-06 14.918658 15.895988 -113.264641 -0.332952 -0.048597 120.217918 -8.229064 -9.735444 -6.841233 1.552702 -2.000631 1.496362 0.0 0.0 2e-06 -38.404861 -33.413696 -66.774353 1.061601 1.236118 124.828911 26.334209 23.114552 -20.183676 -1.453669 0.521224 2.693316 -0.0 0.0 -0.0 
